<svg xmlns="http://www.w3.org/2000/svg" viewBox="0 0 128 128">
  <g transform="rotate(4 64 116)">
    <g stroke="#57402a" stroke-width="3.5" stroke-linejoin="round" stroke-linecap="round">
      <path d="M103 96 Q114 104 120 94" fill="none"/>
      <path d="M34 50 L30 22 L56 36 Z" fill="#cf9e5f"/>
      <path d="M94 50 L98 22 L72 36 Z" fill="#cf9e5f"/>
      <path d="M36 43 L34 28 L46 35 Z" fill="#ffb3c1" stroke="none"/>
      <path d="M92 43 L94 28 L82 35 Z" fill="#ffb3c1" stroke="none"/>
      <path d="M64 118 C92 118 106 101 106 79 C106 53 88 36 64 36 C40 36 22 53 22 79 C22 101 36 118 64 118 Z" fill="#cf9e5f"/>
      <path d="M64 117 C77 117 87 108 87 96 C87 84 77 76 64 76 C51 76 41 84 41 96 C41 108 51 117 64 117 Z" fill="#ecd7ae" stroke="none"/><path d="M54 40 q1 7 -1 11" fill="none" stroke="#6b4a2b" stroke-width="3" stroke-linecap="round"/><path d="M64 38 v12" fill="none" stroke="#6b4a2b" stroke-width="3" stroke-linecap="round"/><path d="M74 40 q-1 7 1 11" fill="none" stroke="#6b4a2b" stroke-width="3" stroke-linecap="round"/><path d="M25 68 q9 3 13 9" fill="none" stroke="#6b4a2b" stroke-width="3" stroke-linecap="round"/><path d="M24 84 q8 2 12 7" fill="none" stroke="#6b4a2b" stroke-width="3" stroke-linecap="round"/><path d="M103 68 q-9 3 -13 9" fill="none" stroke="#6b4a2b" stroke-width="3" stroke-linecap="round"/><path d="M104 84 q-8 2 -12 7" fill="none" stroke="#6b4a2b" stroke-width="3" stroke-linecap="round"/>
      <ellipse cx="46" cy="114" rx="10" ry="5" fill="#cf9e5f"/>
      <ellipse cx="82" cy="114" rx="10" ry="5" fill="#cf9e5f"/>
    </g>
    <path d="M52 64 a5 5 0 1 1 -5 -5 a3 3 0 1 1 -3 3" stroke="#3d2f24" stroke-width="2.8" fill="none" stroke-linecap="round"/>
    <path d="M86 64 a5 5 0 1 1 -5 -5 a3 3 0 1 1 -3 3" stroke="#3d2f24" stroke-width="2.8" fill="none" stroke-linecap="round"/>
    <path d="M56 76 q4 -4 8 0 q4 4 8 0" stroke="#57402a" stroke-width="3" fill="none" stroke-linecap="round"/>
    <path d="M20 30 l4 -8 l4 8 l-8 -5 l8 0 z" fill="#ffd400" stroke="none" opacity="0.9"/>
    <path d="M100 24 l3 -6 l3 6 l-6 -4 l6 0 z" fill="#ffd400" stroke="none" opacity="0.9"/>
  </g>
</svg>
