<svg xmlns="http://www.w3.org/2000/svg" viewBox="0 0 128 128">
  <g transform="translate(0,-7)">
    <g stroke="#5b4636" stroke-width="3.5" stroke-linejoin="round" stroke-linecap="round">
      <path d="M103 94 Q124 84 112 68" fill="none"/>
      <path d="M33 48 L22 16 L56 34 Z" fill="#ffc98a"/>
      <path d="M95 48 L106 16 L72 34 Z" fill="#ffc98a"/>
      <path d="M35 40 L29 24 L46 33 Z" fill="#ffb3c1" stroke="none"/>
      <path d="M93 40 L99 24 L82 33 Z" fill="#ffb3c1" stroke="none"/>
      <path d="M64 118 C92 118 106 101 106 79 C106 53 88 36 64 36 C40 36 22 53 22 79 C22 101 36 118 64 118 Z" fill="#ffc98a"/>
      <path d="M64 117 C77 117 87 108 87 96 C87 84 77 76 64 76 C51 76 41 84 41 96 C41 108 51 117 64 117 Z" fill="#ffe8c7" stroke="none"/>
      <ellipse cx="46" cy="116" rx="10" ry="5" fill="#ffc98a"/>
      <ellipse cx="82" cy="116" rx="10" ry="5" fill="#ffc98a"/>
    </g>
    <path d="M41 66 q6 -7 12 0" stroke="#3d2f24" stroke-width="3.5" fill="none" stroke-linecap="round"/>
    <path d="M75 66 q6 -7 12 0" stroke="#3d2f24" stroke-width="3.5" fill="none" stroke-linecap="round"/>
    <ellipse cx="35" cy="73" rx="6" ry="3.5" fill="#ffb3c1"/>
    <ellipse cx="93" cy="73" rx="6" ry="3.5" fill="#ffb3c1"/>
    <path d="M54 71 q10 10 20 0" stroke="#5b4636" stroke-width="3" fill="none" stroke-linecap="round"/>
  </g>
</svg>
