<svg xmlns="http://www.w3.org/2000/svg" viewBox="0 0 128 128">
  <g transform="translate(64 118) scale(1.18 0.72) translate(-64 -118)">
    <g stroke="#5b4636" stroke-width="3.5" stroke-linejoin="round" stroke-linecap="round">
      <path d="M103 96 Q118 100 120 88" fill="none"/>
      <path d="M34 48 L28 22 L56 36 Z" fill="#ffc98a"/>
      <path d="M94 48 L100 22 L72 36 Z" fill="#ffc98a"/>
      <path d="M36 42 L33 28 L46 35 Z" fill="#ffb3c1" stroke="none"/>
      <path d="M92 42 L95 28 L82 35 Z" fill="#ffb3c1" stroke="none"/>
      <path d="M64 118 C92 118 106 101 106 79 C106 53 88 36 64 36 C40 36 22 53 22 79 C22 101 36 118 64 118 Z" fill="#ffc98a"/>
      <path d="M64 117 C77 117 87 108 87 96 C87 84 77 76 64 76 C51 76 41 84 41 96 C41 108 51 117 64 117 Z" fill="#ffe8c7" stroke="none"/>
      <ellipse cx="42" cy="114" rx="11" ry="5" fill="#ffc98a"/>
      <ellipse cx="86" cy="114" rx="11" ry="5" fill="#ffc98a"/>
    </g>
    <path d="M41 59 L53 68 M53 59 L41 68" stroke="#3d2f24" stroke-width="3.5" stroke-linecap="round"/>
    <path d="M75 59 L87 68 M87 59 L75 68" stroke="#3d2f24" stroke-width="3.5" stroke-linecap="round"/>
    <path d="M56 74 q4 -4 8 0 q4 4 8 0" stroke="#5b4636" stroke-width="3" fill="none" stroke-linecap="round"/>
  </g>
</svg>
